
<global>
amp_veltrack=0
ampeg_release=0.50
</global>

<group>
group_label=Group_0-45
lpc_hicc1=42
lpc_locc1=0

<region>
hikey=g#6
hivel=127
lokey=g6
lovel=1
lpc=pa1YQpOjWMJzOERCgVCfwUjHSkG4GKZBDRyxQMn3J0GuobZBQrHgwE4N8EGRu8rACy3FQYEnucFK8RRBEbAwQTlmsz64DAxBKD4ov3w8DMEM5dZAvYg4wdZS5kDkQbbA
lpc_rms=-17.08
pitch_keycenter=G#6
sample=Flute_trill_wholetone_PP_G#6.opus
</region>

<region>
hikey=g#5
hivel=127
lokey=g5
lovel=1
lpc=O0SgQZIbIsK7EAhCrNaPwQoVCkFyzWRAMP06wDjfwMDyWe1A2NgEwVHPT0HsaRjBsdEQQRqv9MD/Nuk+bF4mQPU3Kz8ZIEq/lHdSQFc7WsC97xFACYsLwKjILUAfBaS/
lpc_rms=-34.46
pitch_keycenter=g#5
sample=Flute_trill_wholetone_PP_G#5.opus
</region>

<region>
hikey=g#4
hivel=127
lokey=g4
lovel=1
lpc=RN6DQvpoNsO1lE9D1dwSwyW/sEKFhgXCPDUSQeput8HrbKZBYrM9wW4mwkGzsuvBBo2TQUs4Z8HJHRtBuqvSP70QicCYG9Q/7rYNQFNn28Ds2BNB1br4wHGdQkDsR18/
lpc_rms=-34.23
pitch_keycenter=g#4
sample=Flute_trill_wholetone_PP_G#4.opus
</region>

<region>
hikey=f#6
hivel=127
lokey=f6
lovel=1
lpc=TdP6QTps48FA4p5BnbpIwacmDUG/ZDhBOdW3QIDSukDTydRAhw91wH/KcEGp6lE/Je1YQW6TGD+XKaE+a4scwIENd0CuOgVBO+DPQF6h07+MryU/G3sVwMrJ9z/to8K9
lpc_rms=-24.87
pitch_keycenter=f#6
sample=Flute_trill_wholetone_PP_F#6.opus
</region>

<region>
hikey=f#5
hivel=127
lokey=f5
lovel=1
lpc=ExhPQWF6wMEGq5lB5L8ywYiKskBWdDpA2TYXwFaxCcCw+y5AywN4wF8V3UDadJbAtXCRQM63wsBHx6lAjfhkwDF5e0D1Bma/gcByv5CXPj+8y5I9kUXBvhIp7j9WQ/m+
lpc_rms=-41.60
pitch_keycenter=f#5
sample=Flute_trill_wholetone_PP_F#5.opus
</region>

<region>
hikey=f#4
hivel=127
lokey=f4
lovel=1
lpc=qbIrQvbM+MKL1RdD9I/hwjlngUK536rBfA4kwHpZ7MD3mWRBvTDHwJcFGkEwXjvBX4GsQBwfI8F0ZmFBlQARwT+nIkF2TTfBZYGAQHBWVEAwKgfBMahbQZpuPsF8z45A
lpc_rms=-39.73
pitch_keycenter=f#4
sample=Flute_trill_wholetone_PP_F#4.opus
</region>

<region>
hikey=e6
hivel=127
lokey=d#6
lovel=1
lpc=w3+zQXcby8E73K1BWUlQwSdUAEFWKulA4RckwNBRmUBY5eVADYMJv2QWIUGfM0LA6u4iQfysNMBXeRNBR5sDvhrXgT8LKgRAB4rHv8e7xkADI3pAYKtiv0a3wz+5HQY+
lpc_rms=-27.98
pitch_keycenter=e6
sample=Flute_trill_wholetone_PP_E6.opus
</region>

<region>
hikey=e5
hivel=127
lokey=d#5
lovel=1
lpc=zMK1QRJ4ScIB8VJCEmorwrZ/20EmKnTAJkJ4wCVe0L6pqxtAzOWlwEPEIkH5TSTBJ0UvQS46P8GRlx1BP57TwO9SlUCAQV6/KimDvy6xZ0ARxITA5yeCQOpWnsDavYRA
lpc_rms=-38.08
pitch_keycenter=e5
sample=Flute_trill_wholetone_PP_E5.opus
</region>

<region>
hikey=e4
hivel=127
lokey=d#4
lovel=1
lpc=p/irQuRGc8Nuao1DSZBGw5jR40LTLh3Cvfyfvg8T0MEcRBxCoiEmwbmk1z9BjIbARlFNwEV5U8Es3tJBa+zrwOzWrr9U81DA826sv+AtjkB0RpbAi1h/QakHv8Gyp0JB
lpc_rms=-34.70
pitch_keycenter=e4
sample=Flute_trill_wholetone_PP_E4.opus
</region>

<region>
hikey=d6
hivel=127
lokey=c#6
lovel=1
lpc=9GkAQlayFMJ+lWhBM8nkP9b5jsBbx0dBZKaXQGZHy8Drd89AT20RP4OCFkEvvnA/APGFP4VANUBD9bZAoSLOvvS1D0HYwXvAcW1+QGQ487/ia3q/9V6qQJGbb0BCheU/
lpc_rms=-26.15
pitch_keycenter=d6
sample=Flute_trill_wholetone_PP_D6.opus
</region>

<region>
hikey=d5
hivel=127
lokey=c#5
lovel=1
lpc=OtfcQbWsfcIKs3hCfNI8wn1kB0LUIw/BbIVlPchEpsAkDWNAIerDwNOEXkHV81TBS+ZKQc8MeMEI/3ZB9qE2wVY5AEEIc1zAsieuv1OsskAPNaHAe5tsQNzTlsBRQmxA
lpc_rms=-35.86
pitch_keycenter=d5
sample=Flute_trill_wholetone_PP_D5.opus
</region>

<region>
hivel=127
key=d4
lovel=1
lpc=Ls4/QvLRCcOQLxpDq9yzwv+REULcDdXADzawwHwhMMEgwpJBT5cgwOChZb/2YUHAHQRgvgk9lcAFp+dAzT5FQBGXjsCMog/AERt7P32/REB5GXDAy3z7QEvNNsGpDLRA
lpc_rms=-42.41
sample=Flute_trill_wholetone_PP_D4.opus
</region>

<region>
hikey=c6
hivel=127
lokey=b5
lovel=1
lpc=DU1RQU/prcGycodBg5z6wHz9NUBAIyBAcritPsQZacBCHrBAMmAqwNIVsECi+F7ALAjtP89Y3r4NOLg/1ogDQNMImr06GkQ/7/b+vjAp+b4lWhM/NkhMQK5Vm8AwdHVA
lpc_rms=-35.37
pitch_keycenter=c6
sample=Flute_trill_wholetone_PP_C6.opus
</region>

<region>
hikey=c5
hivel=127
lokey=b4
lovel=1
lpc=KDIMQn+jt8LNDdNCnvqnwoErY0JnjbTBcuq4QKVWK8EltDlB8x4wwSsMfEHQpnPBh1RoQUgElsHAoXVB0UHDwJSfg0C1lL6/cEgXwHebkT+c0v8+b+mFPzQmF8AixQNA
lpc_rms=-38.70
pitch_keycenter=c5
sample=Flute_trill_wholetone_PP_C5.opus
</region>

<region>
hikey=a#5
hivel=127
lokey=a5
lovel=1
lpc=guKsQf0UJ8Iib/5Bt751wQ7fEEFm/AVApF1yvjl8DsGHavhAHx/DwFNxP0FC1+zApCTTQJR9C8E4NYVA42zCP4kaST84bwE/Vgzov2uBLkA7Hra/7x8EQIYwmsBBDm5A
lpc_rms=-32.38
pitch_keycenter=a#5
sample=Flute_trill_wholetone_PP_A#5.opus
</region>

<region>
hikey=a#4
hivel=127
lokey=a4
lovel=1
lpc=IAydQoO7YMN8T4dDpp1Pw4wqC0OHyoXCkrCZQdAN4sGWVRBCLhGpwTHFVkGps1HBwo6IQSDO+8EoFAtCuYlUwe0JzsA6MmdBBvF9wQqiJUFfBYnAGHC7QE5p7cAGDoFA
lpc_rms=-33.36
pitch_keycenter=a#4
sample=Flute_trill_wholetone_PP_A#4.opus
</region>
</group>

<group>
group_label=Group_46-90
lpc_hicc1=84
lpc_locc1=43

<region>
hikey=g#6
hivel=127
lokey=g6
lovel=1
lpc=fAVdQkK+gsJiW39CTRfXwVPH8ED0ffBBSyWgwPcngkHsgI1BmK8qwb/H7EFJ248/fPgOQVqGgsGN/TJBLtiMQHlmC7+3pvhAbIN0wO+fucCM3aFA31mawVrXmUE/01jB
lpc_rms=-13.45
pitch_keycenter=G#6
sample=Flute_trill_wholetone_MF_G#6.opus
</region>

<region>
hikey=g#5
hivel=127
lokey=g5
lovel=1
lpc=7iHKQfdUc8JFToVCqg8ywhAAokGG+GRAGc4mwXnbEkDxBmVAM45owJvE9ECfZc/Ak/K5QEt9GsFIkDRBwuqFwL8qkD+tn4q/bqWOPxOlQT8997q+nGPWP0uqsr83veM+
lpc_rms=-24.72
pitch_keycenter=g#5
sample=Flute_trill_wholetone_MF_G#5.opus
</region>

<region>
hikey=g#4
hivel=127
lokey=g4
lovel=1
lpc=jxtdQn6wF8ONJCVDS+zcwqVhhEKBoUrBWKeEwSoRzMCXp39BSdhHwXMM5EEqwfnBwbicQRhVtsGTJKlBxTQSwVCS/UA4NYHA/FkjwGTvzb7/Stc/N8RSQAy9tMDFp0tA
lpc_rms=-24.27
pitch_keycenter=g#4
sample=Flute_trill_wholetone_MF_G#4.opus
</region>

<region>
hikey=f#6
hivel=127
lokey=f6
lovel=1
lpc=VrsqQlQEWsJ34UlC/RT2weACykH6A6ZApS4vQemnfb9xwvNAIm8aQVxOQ0GOYJRAA+FxQaZRMEDwLs7AszAGQeLm10Af88dA376NQBaPF8AXXXlAIMjMwA6whkFqrirB
lpc_rms=-15.06
pitch_keycenter=f#6
sample=Flute_trill_wholetone_MF_F#6.opus
</region>

<region>
hikey=f#5
hivel=127
lokey=f5
lovel=1
lpc=amylQVwAP8Jyrj9CBF7mwaO5NEEQKNNAo5gkwaUrQD98UpxAysngwDdHRUFYBAjBPm1EQN4JO8DQ6DJAxdxYwPs290DEsqrABdOEQDoUscAsDS1AOsLnP/eAA78GliY+
lpc_rms=-26.56
pitch_keycenter=f#5
sample=Flute_trill_wholetone_MF_F#5.opus
</region>

<region>
hikey=f#4
hivel=127
lokey=f4
lovel=1
lpc=XRXUQXw0hsKvfIBCyaEbwkXz0kEfefTApQkGwEA1CsEnR/BAMsXIvz8LHUHoWz3BrsS9QK7tEcHAmSNBUrImwLr/fD7z1Nq/xWIKv8fNfT/DhMU/q3jQP9gAp8C+TSNA
lpc_rms=-33.00
pitch_keycenter=f#4
sample=Flute_trill_wholetone_MF_F#4.opus
</region>

<region>
hikey=e6
hivel=127
lokey=d#6
lovel=1
lpc=5rjwQX7WQsLsQyxCjZTJweGSF0Egrk9BAyrkwLsqKT8XnTFBZ4IcwQATekEZeMfA8F4/QcMiFsG8kCBBxTwiwAfm2j8teklAPHT8wB39ikEPVCfBdw2+QPDe0b8tPs0+
lpc_rms=-17.63
pitch_keycenter=e6
sample=Flute_trill_wholetone_MF_E6.opus
</region>

<region>
hikey=e5
hivel=127
lokey=d#5
lovel=1
lpc=rIPYQdEyhMJLjYhCBDsswjmpkkGYbflACzxuwSaJVkCSq1lAzgqWwLlyAEEwZdPAkF+pQF0JzMDr5PtA3frVwKfVPEAf+cg/1ku9vuuzgb/ZQgVAqvQRwAKxlD4s2uM/
lpc_rms=-28.78
pitch_keycenter=e5
sample=Flute_trill_wholetone_MF_E5.opus
</region>

<region>
hikey=e4
hivel=127
lokey=d#4
lovel=1
lpc=SNL2QU1enMJKLZlCe+BQwrOFG0Jf4WXB+OBsQFzoYcHKxwlB4jBCwM3uNkHy9vTA/H2sPhKLvcAkFQJB/gOnwDdAtEBGf4nAm955P7Px07+qu3JATHwHPz6id8Cr4Mc/
lpc_rms=-32.01
pitch_keycenter=e4
sample=Flute_trill_wholetone_MF_E4.opus
</region>

<region>
hikey=d6
hivel=127
lokey=c#6
lovel=1
lpc=VUHKQblSKMJXkRZCi0WXwYhmsED+9/tAm6pkwCqwqT83O5lATEr+v1Fd+kA3aaS+gTjHQPAK38CFdD1BGG9lwJmCm0AfNuq/L2AJvzZipECLyZjAh5IuQYDI9sBfD7BA
lpc_rms=-22.24
pitch_keycenter=d6
sample=Flute_trill_wholetone_MF_D6.opus
</region>

<region>
hikey=d5
hivel=127
lokey=c#5
lovel=1
lpc=v1bGQco+UsL2YClCILehwa2x30BxJ9FA/ic3wPSSFMEZohJBGhbYwA7kA0G73IrArR1DQLjD08DX2tBAA70avzBucsCyMb1A5ZixwBC7b0BBS6a+HKiMP+l1ksBvMX9A
lpc_rms=-27.31
pitch_keycenter=d5
sample=Flute_trill_wholetone_MF_D5.opus
</region>

<region>
hivel=127
key=d4
lovel=1
lpc=WmzrQSCUlsLkRZ9ChZx8wsbtNkKjXErBJgwtwK6Qm8AGvBdAFwcjwE19TUEoDh/BpQDKQKJSOcGB17ZAqV7EP7sjjz7VMGI/9TIhwLjq7T9WJ+K/xmv1P6PTg7/dsoC9
lpc_rms=-34.45
sample=Flute_trill_wholetone_MF_D4.opus
</region>

<region>
hikey=c6
hivel=127
lokey=b5
lovel=1
lpc=A1jWQVFwNsIBChJCPOGYwd/r6j9J1ohBfNQ+wbEmikCaxXFAgQnXwGoSLUH3l9TAijUjQeKN8sBJOKpAdKEKvyd6G0ClPytAT49SQMq9EME3nRpB4DvMwGeuGT9HLqVA
lpc_rms=-22.16
pitch_keycenter=c6
sample=Flute_trill_wholetone_MF_C6.opus
</region>

<region>
hikey=c5
hivel=127
lokey=b4
lovel=1
lpc=uXvHQTa9e8Ku7YFCgvQrwgIlxEEHdF/AWTOzwGy/ksAKrBtBtnMXwfrubkHBSFnBj4QfQUQIN8HPYAdBVSQpwAkiFECX/46/hTHav+O8dz9LiYO/AIhEQHTvYcBF5g1A
lpc_rms=-28.83
pitch_keycenter=c5
sample=Flute_trill_wholetone_MF_C5.opus
</region>

<region>
hikey=a#5
hivel=127
lokey=a5
lovel=1
lpc=fTUJQuDjnMLZk6JCiE9kwqedBkJMmMnAqGd2v9UDBsEgAUZBpZT4wM/oKUGRRDnBPoFvQTluZMEkX0tBCYYDwb3BB0EFmyHBzw89QQlLvsBAIK9AzaXHwFxb2L/OjLZA
lpc_rms=-20.58
pitch_keycenter=a#5
sample=Flute_trill_wholetone_MF_A#5.opus
</region>

<region>
hikey=a#4
hivel=127
lokey=a4
lovel=1
lpc=p0UXQuFJv8JCYrFCjBktwjvcokG/iwtA3WgkwfYjTcE7CKxB0TNqwdMgikF8cEHBZhZtQEEk/8BBZ4BAJYjNQFf8/r8hJ2S+DyyOwIg5IEAIB4y/JiGbQOq01cBcy3BA
lpc_rms=-26.06
pitch_keycenter=a#4
sample=Flute_trill_wholetone_MF_A#4.opus
</region>
</group>

<group>
group_label=Group_91-127
lpc_hicc1=127
lpc_locc1=85

<region>
hikey=g#6
hivel=127
lokey=g6
lovel=1
lpc=MrUiQnvYMMJL1yxCi0t2wbWmDkFavKBBUIqZwKrnmEGXdp5AoNIcQFaTrEFK5ZXAnth9QRmGXcHPtPG/RPagQZCFgMGDdDpBMEUJwDj5KMHVbCRBmIqHwZFFS0FKaTXB
lpc_rms=-12.14
pitch_keycenter=G#6
sample=Flute_trill_wholetone_FF_G#6.opus
</region>

<region>
hikey=g#5
hivel=127
lokey=g5
lovel=1
lpc=gqRcQZpV8sGlpPNBCaOTwcVc0EBOaJxAx5HfwMjS4z+XkglAtgFdwBKw3UDX+OLAO/+tQJHpk8BFNmhA5hRgP38MIMDLlMc/TvpBvwYrkD9xXoI+ifSuv94GLUC37+q/
lpc_rms=-24.10
pitch_keycenter=g#5
sample=Flute_trill_wholetone_FF_G#5.opus
</region>

<region>
hikey=g#4
hivel=127
lokey=g4
lovel=1
lpc=xQjyQf2Ko8JCeK9CwWFYwsh/5EGEl4bAmvUqwf9Osr/tO0hBlqBAwRrzd0EQiW/BVkLbQCpHxsBUD/9Afh4EwKTMFz8Xu5rAVbQwQJ50lT+HSyI9MDKRP6y5g8A3UjdA
lpc_rms=-23.64
pitch_keycenter=g#4
sample=Flute_trill_wholetone_FF_G#4.opus
</region>

<region>
hikey=f#6
hivel=127
lokey=f6
lovel=1
lpc=CCvlQUS0JMLCKjVCcbjgwS6+gkHWcdhAvBXEP6MQg0ASwT5BYMllwDw+iUHE+GHA8ydIQW4XE73pXjM+G/2/QA3xAkC6k99AcViqP18XHj9Z/rA/OaTSPhELuj+w9vC+
lpc_rms=-13.44
pitch_keycenter=f#6
sample=Flute_trill_wholetone_FF_F#6.opus
</region>

<region>
hikey=f#5
hivel=127
lokey=f5
lovel=1
lpc=X/WLQaMwFsIU8wpCuXSRwUTasEDhYK5AGZekwG26r79xujxAjy4QwKcx0EDkceTAuWzcQOWgC8HpIPdAqoIUwOHKE0Ce8Zi/BpsPPxuxJcAycRpAcVz3P4ks67+u85w/
lpc_rms=-23.11
pitch_keycenter=f#5
sample=Flute_trill_wholetone_FF_F#5.opus
</region>

<region>
hikey=f#4
hivel=127
lokey=f4
lovel=1
lpc=3GqRQSQBRsLVIllCzxINwl0ynkGWXJLA4EiawB8qnb9dlMxAYdDMwIGFKUEeHhbB5uBNQN03WMDtCx5A6PAxP3CAzD8aKGvAfHOoPzcMQj993Ta/50LBPqV2nr4Cvks+
lpc_rms=-27.84
pitch_keycenter=f#4
sample=Flute_trill_wholetone_FF_F#4.opus
</region>

<region>
hikey=e6
hivel=127
lokey=d#6
lovel=1
lpc=YR4GQoQARcK9YydCg0KCwapqAUFGXW1BEvDNv+uh7773kBxBvC95P8cca0FwyZVAKdcdQZmOYcB7JTZBpO/ov3+ygkFkKQHB/RMTQfj9D0Fa9h/BY2hYQd1evMB4VvZA
lpc_rms=-11.44
pitch_keycenter=e6
sample=Flute_trill_wholetone_FF_E6.opus
</region>

<region>
hikey=e5
hivel=127
lokey=d#5
lovel=1
lpc=WERRQadv5cGFOMpBzWMswWlpAEBjzU9ARSkdwBqkcMBvg/VAVf20wAdUoECuvYfAdgHbP+K8LL4YSw+/+zQ6QE3W+b/y16a+UbyUP0qbGz678hW/1NIuQLlqoMCaymVA
lpc_rms=-26.73
pitch_keycenter=e5
sample=Flute_trill_wholetone_FF_E5.opus
</region>

<region>
hikey=e4
hivel=127
lokey=d#4
lovel=1
lpc=FsNxQb6tEsKvEwxCQYC0wYZSWUEVQxC/WelVwGzNIMCpeQlAFDQ3wK894kDZK5bAUNgXQFuFjMCquT9ATpjzv5XYfUABsyzApIwIPx07Hb+VCqU7SM4FP23GFb4ZnjU+
lpc_rms=-32.03
pitch_keycenter=e4
sample=Flute_trill_wholetone_FF_E4.opus
</region>

<region>
hikey=d6
hivel=127
lokey=c#6
lovel=1
lpc=JITYQQ8OQ8JxNj5C0d7hwbtcQkFe3gZBiqMNwajLlEB70M1AdaKRwMMmRUEm2QDBzLodQe8N8r/XbsBAsegJvioJTECjprHA+jwAQbJSlj/rfuPAQSGQQV5uf8FghQ5B
lpc_rms=-14.51
pitch_keycenter=d6
sample=Flute_trill_wholetone_FF_D6.opus
</region>

<region>
hikey=d5
hivel=127
lokey=c#5
lovel=1
lpc=yChAQUnm08Ej37RBzrw2wesWnEDIYxVA1+JFwMHS0b8pABZA88KwvzD80D9bPm2+KkZ8vWOCvb+dbQxA9EMgv33osjxOKq+/G2kVQFtl87+WuxRAxSapv2cMeL9BDbI/
lpc_rms=-27.35
pitch_keycenter=d5
sample=Flute_trill_wholetone_FF_D5.opus
</region>

<region>
hivel=127
key=d4
lovel=1
lpc=hFyQQZ3mMcKjIzNCfQYFwqwwu0HAk+HA9eh6P9+3rMAt3mBA74FRwOr3AUFYjtLAD9uDQD0P4MC/AbdA1riJv/jXEL8wRvY/+lrpvyWE1b7Wya4/Vvfhvt4/Bb632HM9
lpc_rms=-31.34
sample=Flute_trill_wholetone_FF_D4.opus
</region>

<region>
hikey=c6
hivel=127
lokey=b5
lovel=1
lpc=LBBOQSmWqsHDjJRBm+MXweKDX0CD/FVAlGENwFLJHz/0xEVAngECwG79g0Bj6jfAlLGNQFx1CMCDDtA/QFmRP2kQTj9sEp0/W6ZyPT4rkb3NZ7U/Wd3Gvn1mHcC7RlVA
lpc_rms=-23.09
pitch_keycenter=c6
sample=Flute_trill_wholetone_FF_C6.opus
</region>

<region>
hikey=c5
hivel=127
lokey=b4
lovel=1
lpc=2tJgQWLFA8IN8OtBy4lrwRO4uEANenhAMOzawGmFF78BXWpAOlhIwFtRqkCmP1XA5vhhPxrCrb9YRYY+zSdVP/wNwj+CJSfAwYOPP+PYH76ELGw+5GXcPopm17/45Ls/
lpc_rms=-28.16
pitch_keycenter=c5
sample=Flute_trill_wholetone_FF_C5.opus
</region>

<region>
hikey=a#5
hivel=127
lokey=a5
lovel=1
lpc=cGCcQWp7K8LyOTJChonzweZeiEFPbCrAgOBPwJfe3D9lnSBAyEMwwKRhnUCN6FbAXqkVQIi0lb92YWtASD1bwCe2gUCsiNK/NwrYPSA9Bz+1waVAbb8WwQawikDdNM4/
lpc_rms=-20.72
pitch_keycenter=a#5
sample=Flute_trill_wholetone_FF_A#5.opus
</region>

<region>
hikey=a#4
hivel=127
lokey=a4
lovel=1
lpc=MoelQV7lbcJ+EI9CBjJMwlWsykFiEsk+wb9iwaUVkUD5RPtABVYkwZcIVUFMqkPBNTGeQAGYR8DzzhpAiUe1P0iiUb8Jp26/AnN3v3iHCkD8GOq/ER04QPgPPcCEyZc/
lpc_rms=-21.80
pitch_keycenter=a#4
sample=Flute_trill_wholetone_FF_A#4.opus
</region>
</group>